<?xml version="1.0" encoding="UTF-8" standalone="no"?>
<!-- Created with Inkscape (http://www.inkscape.org/) -->

<svg
   xmlns:dc="http://purl.org/dc/elements/1.1/"
   xmlns:cc="http://creativecommons.org/ns#"
   xmlns:rdf="http://www.w3.org/1999/02/22-rdf-syntax-ns#"
   xmlns:svg="http://www.w3.org/2000/svg"
   xmlns="http://www.w3.org/2000/svg"
   xmlns:sodipodi="http://sodipodi.sourceforge.net/DTD/sodipodi-0.dtd"
   xmlns:inkscape="http://www.inkscape.org/namespaces/inkscape"
   id="svg3004"
   version="1.1"
   inkscape:version="0.48.4 r9939"
   width="765"
   height="990"
   xml:space="preserve"
   sodipodi:docname="card.svg"
   inkscape:export-filename="/home/will/workspace/business-card/card.png"
   inkscape:export-xdpi="90"
   inkscape:export-ydpi="90"><metadata
     id="metadata3010"><rdf:RDF><cc:Work
         rdf:about=""><dc:format>image/svg+xml</dc:format><dc:type
           rdf:resource="http://purl.org/dc/dcmitype/StillImage" /><dc:title></dc:title></cc:Work></rdf:RDF></metadata><defs
     id="defs3008"><clipPath
       clipPathUnits="userSpaceOnUse"
       id="clipPath3018"><path
         d="M 0,792 612,792 612,0 0,0 0,792 z"
         id="path3020" /></clipPath></defs><sodipodi:namedview
     pagecolor="#ffffff"
     bordercolor="#666666"
     borderopacity="1"
     objecttolerance="10"
     gridtolerance="10"
     guidetolerance="10"
     inkscape:pageopacity="0"
     inkscape:pageshadow="2"
     inkscape:window-width="1680"
     inkscape:window-height="1001"
     id="namedview3006"
     showgrid="false"
     inkscape:zoom="1.6787879"
     inkscape:cx="312.67775"
     inkscape:cy="733.26715"
     inkscape:window-x="1366"
     inkscape:window-y="24"
     inkscape:window-maximized="1"
     inkscape:current-layer="g3012"
     inkscape:snap-grids="true"
     inkscape:snap-to-guides="true"
     inkscape:snap-bbox="true"
     inkscape:bbox-paths="true"
     inkscape:snap-bbox-edge-midpoints="false"
     inkscape:snap-bbox-midpoints="true"
     inkscape:snap-global="true"
     inkscape:bbox-nodes="true"><sodipodi:guide
       position="830.40287,945.01037"
       orientation="0,-900"
       id="guide3118" /><sodipodi:guide
       position="821.01562,45.00125"
       orientation="0,-899.99875"
       id="guide3120" /><sodipodi:guide
       position="382.61538,-63.75"
       orientation="-1125,0"
       id="guide3122" /><sodipodi:guide
       position="841.0315,224.99025"
       orientation="0,-900"
       id="guide3124" /><sodipodi:guide
       position="839.88288,404.97563"
       orientation="0,-900"
       id="guide3126" /><sodipodi:guide
       position="847.2815,584.99025"
       orientation="0,-900"
       id="guide3128" /><sodipodi:guide
       position="846.0315,764.98963"
       orientation="0,-900"
       id="guide3130" /><sodipodi:guide
       position="697.61838,-61.962875"
       orientation="-1125,0"
       id="guide3132" /><sodipodi:guide
       position="67.511,-58.212875"
       orientation="-1125,0"
       id="guide3134" /><sodipodi:guide
       position="765,0"
       orientation="0,-764.9975"
       id="guide3136" /><sodipodi:guide
       position="0.0025,0"
       orientation="-990,0"
       id="guide3138" /><sodipodi:guide
       position="0.0025,990"
       orientation="0,764.9975"
       id="guide3140" /><sodipodi:guide
       position="765,990"
       orientation="990,0"
       id="guide3142" /><sodipodi:guide
       position="765,0"
       orientation="0,0"
       id="guide3144" /></sodipodi:namedview><g
     id="g3012"
     inkscape:groupmode="layer"
     inkscape:label="WL-244"
     transform="matrix(1.25,0,0,-1.25,0,990)"><g
       id="g3024"
       transform="translate(54.0088,-46.5703)"
       style="fill:#008000" /><g
       id="g3028"
       transform="translate(558.0947,-49.5703)"
       style="fill:#008000" /><g
       id="g3032"
       transform="translate(676.8252,611.9917)"
       style="fill:#008000" /><g
       id="g3036"
       transform="translate(677.8252,467.9922)"
       style="fill:#008000" /><g
       id="g3040"
       transform="translate(671.9063,323.9805)"
       style="fill:#008000" /><g
       id="g3044"
       transform="translate(672.8252,179.9922)"
       style="fill:#008000" /><g
       id="g3048"
       transform="translate(306.0923,-51)"
       style="fill:#008000" /><g
       id="g3052"
       transform="translate(656.8125,36.001)"
       style="fill:#008000" /><g
       id="g3056"
       transform="translate(664.3223,756.0083)"
       style="fill:#008000" /><g
       id="g5091"
       style="fill:#ffffff"
       transform="translate(-5.065918e-7,-4.78125e-6)"><g
         style="fill:#ffffff"
         id="g4262"><rect
           style="fill:#ffffff"
           id="rect4260"
           width="252.0835"
           height="144.0166"
           x="54.008801"
           y="-756.0083"
           transform="scale(1,-1)" /></g></g><flowRoot
       xml:space="preserve"
       id="flowRoot9563"
       style="font-size:40px;font-style:normal;font-variant:normal;font-weight:normal;font-stretch:normal;line-height:125%;letter-spacing:0px;word-spacing:0px;fill:#000000;fill-opacity:1;stroke:none;font-family:Droid Sans;-inkscape-font-specification:Droid Sans"
       transform="matrix(0.8,0,0,-0.8,-31.927577,821.54512)"><flowRegion
         id="flowRegion9565"><rect
           id="rect9567"
           width="250.18051"
           height="55.840702"
           x="154.87364"
           y="85.180504"
           style="font-style:normal;font-variant:normal;font-weight:normal;font-stretch:normal;font-family:Droid Sans;-inkscape-font-specification:Droid Sans" /></flowRegion><flowPara
         id="flowPara9569">@wlaurance</flowPara></flowRoot><text
       xml:space="preserve"
       style="font-size:9.60000038px;font-style:normal;font-variant:normal;font-weight:normal;font-stretch:normal;line-height:125%;letter-spacing:0px;word-spacing:0px;fill:#000000;fill-opacity:1;stroke:none;font-family:Droid Sans;-inkscape-font-specification:Droid Sans"
       x="112.84587"
       y="-646.65704"
       id="text9571"
       sodipodi:linespacing="125%"
       transform="scale(1,-1)"><tspan
         sodipodi:role="line"
         x="112.84587"
         y="-646.65704"
         id="tspan9913">{github,twitter}.com/wlaurance</tspan></text>
<g
       transform="matrix(0.13664748,0,0,0.13664748,206.52204,672.63983)"
       inkscape:label="ink_ext_XXXXXX"
       id="g9608"><g
         transform="scale(0.1,0.1)"
         id="g9610"><path
           id="path9612"
           style="fill:#6babe1;fill-opacity:1;fill-rule:nonzero;stroke:none"
           d="M 859.797,0 C 543.047,0 248.223,92.8516 0,251.988 c 43.8789,-5.179 88.5273,-7.828 133.801,-7.828 262.781,0 504.629,89.672 696.59,240.102 -245.442,4.527 -452.578,166.687 -523.953,389.527 34.246,-6.551 69.382,-10.059 105.527,-10.059 51.148,0 100.703,6.852 147.769,19.668 -256.589,51.524 -449.929,278.222 -449.929,549.982 0,2.37 0.008,4.71 0.047,7.05 75.628,-42.01 162.113,-67.24 254.054,-70.15 -150.5,100.58 -249.519,272.26 -249.519,466.85 0,102.8 27.652,199.14 75.933,281.98 276.645,-339.34 689.934,-562.64 1156.09,-586.03 -9.56,41.05 -14.53,83.86 -14.53,127.82 0,309.75 251.14,560.88 560.91,560.88 161.32,0 307.09,-68.12 409.41,-177.13 127.76,25.16 247.8,71.84 356.17,136.12 -41.88,-130.98 -130.81,-240.9 -246.62,-310.32 113.46,13.56 221.56,43.71 322.15,88.32 -75.2,-112.48 -170.3,-211.27 -279.88,-290.35 1.08,-24.05 1.62,-48.24 1.62,-72.56 C 2455.64,854.672 1891.48,0 859.797,0"
           inkscape:connector-curvature="0" /></g></g><flowRoot
       xml:space="preserve"
       id="flowRoot9621"
       style="fill:black;stroke:none;stroke-opacity:1;stroke-width:1px;stroke-linejoin:miter;stroke-linecap:butt;fill-opacity:1;font-family:Sans;font-style:normal;font-weight:normal;font-size:23px;line-height:125%;letter-spacing:0px;word-spacing:0px"><flowRegion
         id="flowRegion9623"><rect
           id="rect9625"
           width="47.057762"
           height="38.71841"
           x="124.49458"
           y="184.65704" /></flowRegion><flowPara
         id="flowPara9627"></flowPara></flowRoot><text
       sodipodi:linespacing="125%"
       id="text9577-2"
       y="-625.92291"
       x="143.68727"
       style="font-size:9.60000038px;font-style:normal;font-variant:normal;font-weight:normal;font-stretch:normal;line-height:125%;letter-spacing:0px;word-spacing:0px;fill:#000000;fill-opacity:1;stroke:none;font-family:Droid Sans;-inkscape-font-specification:Droid Sans"
       xml:space="preserve"
       transform="scale(1,-1)"><tspan
         y="-625.92291"
         x="143.68727"
         id="tspan9579-7"
         sodipodi:role="line">will@dubsoft.net</tspan></text>
<path
       id="path9685"
       style="fill:#1b1817;fill-opacity:1;fill-rule:evenodd;stroke:none"
       d="m 137.28847,703.7071 c -8.9945,0 -16.2887,-7.293 -16.2887,-16.29 0,-7.1968 4.6672,-13.3022 11.1407,-15.4565 0.8148,-0.1492 1.1121,0.3535 1.1121,0.7851 0,0.3867 -0.0141,1.4114 -0.0219,2.7707 -4.5317,-0.9843 -5.4875,2.1836 -5.4875,2.1836 -0.7406,1.8817 -1.8086,2.3828 -1.8086,2.3828 -1.4789,1.0106 0.1117,0.9903 0.1117,0.9903 1.6348,-0.1153 2.4953,-1.6789 2.4953,-1.6789 1.4531,-2.4891 3.8125,-1.7703 4.7406,-1.3536 0.1481,1.0528 0.5688,1.7708 1.034,2.1778 -3.6172,0.4113 -7.4199,1.8086 -7.4199,8.0507 0,1.779 0.6352,3.232 1.677,4.371 -0.1676,0.412 -0.7266,2.069 0.1597,4.311 0,0 1.3676,0.438 4.4793,-1.67 1.2992,0.362 2.693,0.542 4.0782,0.549 1.3832,-0.007 2.7769,-0.187 4.0781,-0.549 3.1097,2.108 4.4754,1.67 4.4754,1.67 0.8882,-2.242 0.3293,-3.899 0.1621,-4.311 1.0437,-1.139 1.6742,-2.592 1.6742,-4.371 0,-6.2577 -3.8086,-7.6347 -7.4375,-8.0378 0.5848,-0.5032 1.1059,-1.4973 1.1059,-3.0168 0,-2.1778 -0.02,-3.9344 -0.02,-4.4688 0,-0.4355 0.2934,-0.9422 1.12,-0.7832 6.4671,2.1582 11.1304,8.2598 11.1304,15.4546 0,8.997 -7.2937,16.29 -16.2906,16.29"
       inkscape:connector-curvature="0" /></g></svg>